<svg version="1.1" id="Layer_1" xmlns="http://www.w3.org/2000/svg" xmlns:xlink="http://www.w3.org/1999/xlink" x="0px" y="0px"
	 width="100%" viewBox="0 0 1200 800" enable-background="new 0 0 1200 800" xml:space="preserve">
<path fill="#000000" opacity="1.000000" stroke="none" 
	d="
M869.000000,801.000000 
	C579.369446,801.000000 290.238892,801.000000 1.054163,801.000000 
	C1.054163,534.402771 1.054163,267.805481 1.054163,1.104112 
	C400.880646,1.104112 800.761292,1.104112 1200.821045,1.104112 
	C1200.821045,267.666565 1200.821045,534.333252 1200.821045,801.000000 
	C1090.472046,801.000000 979.986023,801.000000 869.000000,801.000000 
M226.039124,523.793213 
	C229.191971,529.528015 231.658539,535.794739 235.618607,540.903870 
	C251.252426,561.073792 267.410339,580.836365 283.268005,600.834045 
	C299.322754,621.080322 315.239227,641.436157 331.253143,661.714966 
	C333.308594,664.317871 335.585236,666.746155 337.759399,669.255310 
	C338.177124,669.023132 338.594818,668.791016 339.012543,668.558838 
	C338.826172,667.007935 338.928711,665.351624 338.407288,663.923096 
	C334.523468,653.282043 331.446869,642.215332 326.365570,632.167969 
	C313.268555,606.270691 299.226471,580.852417 285.669617,555.185852 
	C283.513184,551.103210 281.914215,546.726074 279.597015,541.433167 
	C281.971405,542.572144 283.140228,543.127441 284.304443,543.692200 
	C296.903259,549.803528 309.337219,556.286926 322.132690,561.954102 
	C351.584167,574.998352 382.764740,582.458252 414.154083,588.851868 
	C434.244232,592.944031 454.560608,596.002136 474.852112,599.006775 
	C493.058441,601.702576 511.347931,603.883728 529.641663,605.925415 
	C541.764099,607.278381 553.946899,608.173706 566.124023,608.931641 
	C580.328308,609.815674 594.549744,610.568909 608.775024,610.928772 
	C621.928345,611.261597 635.199890,609.978210 648.228638,611.294556 
	C660.606079,612.545166 668.891357,608.482239 674.608582,597.941833 
	C674.766052,597.651428 674.929932,597.364502 675.669250,596.742554 
	C687.732971,582.943970 700.617188,570.045166 715.733765,559.514465 
	C752.835754,533.668030 792.544495,531.895691 829.047974,555.342163 
	C838.902344,561.671692 847.555664,569.870911 856.971802,577.849792 
	C860.988159,582.465881 864.920654,587.160217 869.090515,591.633240 
	C869.941040,592.545654 871.769775,593.186340 873.000916,592.997314 
	C879.771118,591.957581 886.505432,590.671326 893.233643,589.374146 
	C902.196655,587.646118 911.142761,585.830200 920.525757,584.702637 
	C906.641541,598.002930 890.619202,606.804443 870.780823,607.843872 
	C861.774109,593.255554 850.800842,579.724731 837.060120,568.605835 
	C810.471619,547.090637 781.369324,540.359375 749.037903,554.216919 
	C733.060791,561.064819 719.305664,571.355530 707.285156,583.726685 
	C697.603760,593.690430 688.667236,604.389771 679.613159,614.945374 
	C676.034424,619.117615 673.032166,623.784302 669.767395,628.225830 
	C685.337891,622.635010 700.786926,621.121460 716.638123,620.861572 
	C737.340637,620.522156 757.632507,623.310852 777.840271,627.121277 
	C786.656616,628.783752 795.333862,631.183960 804.785522,633.417175 
	C769.619812,677.772461 724.471191,699.554565 668.292786,700.148071 
	C669.433472,701.652893 669.814331,702.393372 670.401123,702.890991 
	C674.406738,706.288208 678.345215,709.778259 682.508545,712.973572 
	C707.453857,732.118896 735.710754,739.312256 766.636169,734.825928 
	C787.726685,731.766357 807.064880,723.323608 824.750977,711.579407 
	C835.619324,704.362427 846.160828,696.525513 856.116455,688.101135 
	C864.531738,680.980286 871.880005,672.600708 879.726135,664.803955 
	C883.672058,660.882812 887.005066,655.483337 891.771912,653.403503 
	C909.477112,645.678833 926.406189,636.604919 942.405579,625.926575 
	C961.533447,613.160400 980.071716,599.486328 994.832825,581.558411 
	C1003.242981,571.343933 1011.022827,560.610474 1019.794189,549.990295 
	C1032.789795,542.254578 1045.785278,534.518921 1058.940918,526.687866 
	C1058.749390,527.511169 1058.599121,528.435608 1058.319336,529.319092 
	C1050.152344,555.107361 1039.367310,579.833496 1027.386719,604.023926 
	C1019.405823,620.138733 1011.776245,636.351990 1006.725830,653.653076 
	C1005.203003,658.869751 1004.057495,664.196594 1002.739197,669.472961 
	C1003.226746,669.711731 1003.714294,669.950500 1004.201843,670.189209 
	C1005.517334,668.653442 1007.011902,667.236084 1008.118835,665.562378 
	C1014.739746,655.551025 1021.109619,645.370483 1027.864380,635.451477 
	C1045.814331,609.093323 1064.088379,582.954468 1081.870117,556.484253 
	C1088.442383,546.700806 1093.999634,536.235474 1100.686157,526.227417 
	C1107.303467,529.461975 1109.077881,534.977051 1107.984131,541.811157 
	C1107.623291,544.066345 1107.281860,546.336426 1106.720703,548.546143 
	C1097.913330,583.230042 1085.094971,616.468994 1069.599121,648.636353 
	C1059.877197,668.817810 1051.185791,689.288696 1046.460449,711.234680 
	C1044.947388,718.262268 1044.399048,725.497620 1043.409180,732.637878 
	C1044.120239,732.889465 1044.831421,733.141052 1045.542480,733.392639 
	C1048.173096,729.960205 1051.072510,726.698364 1053.381958,723.062012 
	C1059.324341,713.705505 1064.550171,703.865295 1070.883057,694.791321 
	C1085.274780,674.170532 1100.358276,654.033142 1114.791626,633.440918 
	C1131.737671,609.264099 1148.422363,584.901001 1164.959229,560.442200 
	C1172.429443,549.393494 1180.319946,538.515991 1184.196777,525.428406 
	C1187.079346,515.697449 1185.190674,509.522797 1177.132324,503.573181 
	C1170.558472,498.719666 1164.023926,493.813019 1157.456909,488.950256 
	C1136.316040,473.295746 1115.186157,457.626160 1094.009033,442.020905 
	C1089.250000,438.513885 1088.040771,432.960510 1091.338379,428.152344 
	C1100.102905,415.372711 1109.144531,402.774719 1117.598755,389.793579 
	C1123.626099,380.538513 1119.686768,366.456970 1105.824463,364.844208 
	C1091.411865,363.167389 1077.125488,360.355927 1062.819336,357.838654 
	C1057.167603,356.844208 1052.667236,347.116760 1055.019165,341.844238 
	C1061.258911,327.856567 1067.611450,313.915100 1073.580933,299.812164 
	C1078.779175,287.531158 1070.467651,275.913361 1058.397705,276.829132 
	C1044.353027,277.894714 1030.127808,276.883881 1016.147339,278.354614 
	C1009.842346,279.017944 1007.818176,275.749847 1005.185730,272.219757 
	C1003.937805,270.546326 1002.841125,267.909607 1003.218994,266.017426 
	C1005.128296,256.455688 1007.708801,247.029984 1009.732788,237.488480 
	C1011.389160,229.680145 1013.273499,221.823227 1013.822571,213.902298 
	C1014.462341,204.673615 1005.015198,197.774323 996.034912,199.923965 
	C981.791565,203.333420 967.531250,206.671967 953.277161,210.036346 
	C943.965637,212.234177 937.094177,205.496811 938.923828,195.989685 
	C939.048218,195.343552 938.982849,194.660187 938.998474,193.993988 
	C939.332947,179.727127 939.761902,165.461639 939.971375,151.192932 
	C940.155334,138.659958 927.446289,132.838806 917.822388,137.561447 
	C904.189880,144.251205 890.394165,150.609787 876.640869,157.051514 
	C872.418579,159.029160 863.748169,154.422256 862.994324,149.885468 
	C860.319641,133.790848 857.729065,117.681961 854.980896,101.599945 
	C852.816895,88.936661 839.622803,85.414757 830.824585,91.804504 
	C818.393005,100.832993 806.246643,110.254768 793.997253,119.533371 
	C790.057739,122.517448 780.646057,119.603203 778.931274,114.816269 
	C773.612244,99.967140 768.304077,85.114098 762.972351,70.269531 
	C761.158752,65.220093 757.853149,61.176212 752.594604,60.175041 
	C746.198181,58.957226 740.292297,60.314480 735.625977,65.787277 
	C725.897705,77.196632 715.954407,88.428009 705.888855,99.541809 
	C701.656616,104.214798 692.784119,102.581322 689.535767,97.098778 
	C681.557007,83.632195 673.026001,70.472740 665.542480,56.739979 
	C660.602417,47.674770 645.034058,47.549282 639.476807,57.796547 
	C632.252075,71.118538 624.239746,84.017899 616.415649,97.008392 
	C612.707092,103.165802 604.417236,104.017471 599.424988,98.873741 
	C595.743591,95.080688 592.248291,91.106148 588.694641,87.190224 
	C582.258301,80.097618 575.640930,73.156128 569.476868,65.833565 
	C564.447754,59.859264 557.146851,57.961998 550.217102,61.277111 
	C544.071167,64.217255 543.046692,70.324883 541.043762,75.710762 
	C536.169739,88.816826 531.651001,102.054619 526.908447,115.210213 
	C525.385132,119.435562 515.722839,122.323059 512.207397,119.723335 
	C499.468781,110.302910 486.812378,100.768776 473.968658,91.493919 
	C466.881439,86.375984 457.453186,88.050049 453.199982,95.589134 
	C451.145630,99.230576 450.711823,103.880852 449.964569,108.147949 
	C447.373962,122.941650 444.967712,137.767639 442.501343,152.521439 
	C440.231659,153.907135 438.005188,155.731125 435.453125,156.671875 
	C433.544617,157.375412 430.904785,157.657791 429.128845,156.887192 
	C421.489288,153.572266 414.082184,149.726791 406.525604,146.213974 
	C399.434418,142.917480 392.421600,139.352707 385.085052,136.708481 
	C375.606506,133.292252 365.906525,140.460434 366.033112,150.437439 
	C366.245819,167.205856 366.644440,183.972122 367.015869,200.738159 
	C367.122711,205.561096 359.488373,212.047073 354.734406,210.888779 
	C339.563751,207.192551 324.441956,203.293045 309.249420,199.690689 
	C301.165894,197.773972 291.260925,204.398697 292.202393,212.466354 
	C293.596313,224.411362 296.371521,236.193924 298.522522,248.052200 
	C300.429291,258.564240 307.209167,269.573212 295.484161,278.738007 
	C295.357941,278.836670 295.178558,278.867249 294.981171,278.946869 
	C293.435120,278.636780 291.857544,278.081665 290.266113,278.038422 
	C275.667603,277.641663 261.050751,277.644470 246.471710,276.897339 
	C235.656509,276.343109 227.309326,287.243500 232.065002,298.952271 
	C238.009521,313.588104 244.547775,327.982544 250.812592,342.488586 
	C253.132645,347.860657 248.221039,357.036926 242.541245,357.968353 
	C228.207153,360.319092 213.914078,362.979431 199.522675,364.902924 
	C186.671494,366.620544 181.530716,380.954895 188.881210,391.403992 
	C197.893127,404.214874 206.715256,417.159698 215.537415,430.102539 
	C216.099869,430.927704 215.955887,432.234436 216.140533,433.317139 
	C215.176331,433.131592 214.068390,433.191650 213.269257,432.724030 
	C198.859833,424.292053 185.038925,415.115021 172.334503,404.125397 
	C163.115967,396.151215 155.970123,386.950317 150.065048,376.385895 
	C152.209015,374.623260 154.233704,373.199585 155.975998,371.488342 
	C170.377808,357.343109 182.476578,341.498474 190.960815,323.090851 
	C200.048370,303.374359 203.478058,282.639801 199.828827,261.234528 
	C195.637482,236.649445 182.925674,216.187988 166.419800,198.000687 
	C154.408447,184.765732 140.715790,173.353149 126.255547,162.873611 
	C125.492752,162.320801 124.344093,162.300446 123.508240,162.069077 
	C122.990921,173.644012 122.437744,184.727890 122.016441,195.816788 
	C121.607491,206.580826 121.258347,217.348312 121.017967,228.117310 
	C120.621407,245.882782 120.395721,263.652161 119.965256,281.416718 
	C119.819580,287.428528 119.271797,293.430603 118.859604,300.231964 
	C108.380989,289.860260 101.208481,278.154175 95.109596,265.930756 
	C81.592331,238.839371 75.128311,210.015976 76.023888,179.213165 
	C73.598663,180.317017 71.401619,181.026550 69.513023,182.222977 
	C55.582649,191.047867 42.687641,201.004547 32.863750,214.565170 
	C18.495975,234.398071 14.106050,255.978119 20.925871,279.587280 
	C25.777105,296.381470 34.923080,310.762482 46.312473,323.877045 
	C58.160645,337.519897 71.190491,349.851776 85.281914,361.174927 
	C91.839836,366.444489 99.408035,370.311005 102.019814,380.210571 
	C106.785782,398.275269 118.599915,412.725708 130.965302,426.273407 
	C146.082718,442.836304 162.721985,457.848022 181.197647,470.804596 
	C175.675842,476.843109 170.527969,482.651764 165.185242,488.275299 
	C156.149948,497.785522 146.817337,507.018402 137.933121,516.665710 
	C128.854614,526.523865 127.695908,531.295105 133.826218,544.425476 
	C139.459763,556.491760 149.326187,565.292542 158.304932,574.526123 
	C185.374466,602.364014 213.051498,629.612122 240.563644,657.017944 
	C246.904694,663.334351 253.793594,669.112915 259.978485,675.571716 
	C275.673370,691.961609 291.058655,708.647705 306.704041,725.085693 
	C309.419434,727.938538 312.800781,730.157715 316.778839,733.408569 
	C316.778839,730.691650 316.998138,729.521057 316.746216,728.462585 
	C312.470825,710.499268 304.554840,694.042114 294.845978,678.533691 
	C286.719818,665.553467 277.238983,653.426331 268.978088,640.524353 
	C257.022461,621.851746 245.114578,603.111755 234.162872,583.845398 
	C226.220642,569.873291 218.294891,555.680847 214.491791,539.798279 
	C214.013626,537.801331 214.152451,534.830017 215.332291,533.422241 
	C218.500198,529.642273 222.387619,526.465271 226.039124,523.793213 
z"/>
<path fill="#F74C00" opacity="1.000000" stroke="none" 
	d="
M856.760254,577.211914 
	C847.555664,569.870911 838.902344,561.671692 829.047974,555.342163 
	C792.544495,531.895691 752.835754,533.668030 715.733765,559.514465 
	C700.617188,570.045166 687.732971,582.943970 674.906372,596.865112 
	C661.672302,596.683838 649.192322,596.579224 636.731995,596.029785 
	C617.823547,595.196045 598.905334,594.365906 580.035095,592.949585 
	C562.847656,591.659546 545.644836,590.118958 528.582336,587.733337 
	C506.602234,584.660217 484.698730,580.944031 462.862610,576.955444 
	C417.904968,568.743347 373.608978,557.653687 330.222473,543.364380 
	C302.137909,534.114746 274.633392,523.105591 246.841232,512.960876 
	C245.395096,512.432983 243.281265,511.930450 242.172256,512.587463 
	C236.650253,515.859070 231.360703,519.523071 225.989319,523.048889 
	C222.387619,526.465271 218.500198,529.642273 215.332291,533.422241 
	C214.152451,534.830017 214.013626,537.801331 214.491791,539.798279 
	C218.294891,555.680847 226.220642,569.873291 234.162872,583.845398 
	C245.114578,603.111755 257.022461,621.851746 268.978088,640.524353 
	C277.238983,653.426331 286.719818,665.553467 294.845978,678.533691 
	C304.554840,694.042114 312.470825,710.499268 316.746216,728.462585 
	C316.998138,729.521057 316.778839,730.691650 316.778839,733.408569 
	C312.800781,730.157715 309.419434,727.938538 306.704041,725.085693 
	C291.058655,708.647705 275.673370,691.961609 259.978485,675.571716 
	C253.793594,669.112915 246.904694,663.334351 240.563644,657.017944 
	C213.051498,629.612122 185.374466,602.364014 158.304932,574.526123 
	C149.326187,565.292542 139.459763,556.491760 133.826218,544.425476 
	C127.695908,531.295105 128.854614,526.523865 137.933121,516.665710 
	C146.817337,507.018402 156.149948,497.785522 165.185242,488.275299 
	C170.527969,482.651764 175.675842,476.843109 181.197647,470.804596 
	C162.721985,457.848022 146.082718,442.836304 130.965302,426.273407 
	C118.599915,412.725708 106.785782,398.275269 102.019814,380.210571 
	C99.408035,370.311005 91.839836,366.444489 85.281914,361.174927 
	C71.190491,349.851776 58.160645,337.519897 46.312473,323.877045 
	C34.923080,310.762482 25.777105,296.381470 20.925871,279.587280 
	C14.106050,255.978119 18.495975,234.398071 32.863750,214.565170 
	C42.687641,201.004547 55.582649,191.047867 69.513023,182.222977 
	C71.401619,181.026550 73.598663,180.317017 76.023888,179.213165 
	C75.128311,210.015976 81.592331,238.839371 95.109596,265.930756 
	C101.208481,278.154175 108.380989,289.860260 118.859604,300.231964 
	C119.271797,293.430603 119.819580,287.428528 119.965256,281.416718 
	C120.395721,263.652161 120.621407,245.882782 121.017967,228.117310 
	C121.258347,217.348312 121.607491,206.580826 122.016441,195.816788 
	C122.437744,184.727890 122.990921,173.644012 123.508240,162.069077 
	C124.344093,162.300446 125.492752,162.320801 126.255547,162.873611 
	C140.715790,173.353149 154.408447,184.765732 166.419800,198.000687 
	C182.925674,216.187988 195.637482,236.649445 199.828827,261.234528 
	C203.478058,282.639801 200.048370,303.374359 190.960815,323.090851 
	C182.476578,341.498474 170.377808,357.343109 155.975998,371.488342 
	C154.233704,373.199585 152.209015,374.623260 150.065048,376.385895 
	C155.970123,386.950317 163.115967,396.151215 172.334503,404.125397 
	C185.038925,415.115021 198.859833,424.292053 213.269257,432.724030 
	C214.068390,433.191650 215.176331,433.131592 216.140533,433.317139 
	C215.955887,432.234436 216.099869,430.927704 215.537415,430.102539 
	C206.715256,417.159698 197.893127,404.214874 188.881210,391.403992 
	C181.530716,380.954895 186.671494,366.620544 199.522675,364.902924 
	C213.914078,362.979431 228.207153,360.319092 242.541245,357.968353 
	C248.221039,357.036926 253.132645,347.860657 250.812592,342.488586 
	C244.547775,327.982544 238.009521,313.588104 232.065002,298.952271 
	C227.309326,287.243500 235.656509,276.343109 246.471710,276.897339 
	C261.050751,277.644470 275.667603,277.641663 290.266113,278.038422 
	C291.857544,278.081665 293.435120,278.636780 294.981171,278.946869 
	C295.178558,278.867249 295.357941,278.836670 295.484161,278.738007 
	C307.209167,269.573212 300.429291,258.564240 298.522522,248.052200 
	C296.371521,236.193924 293.596313,224.411362 292.202393,212.466354 
	C291.260925,204.398697 301.165894,197.773972 309.249420,199.690689 
	C324.441956,203.293045 339.563751,207.192551 354.734406,210.888779 
	C359.488373,212.047073 367.122711,205.561096 367.015869,200.738159 
	C366.644440,183.972122 366.245819,167.205856 366.033112,150.437439 
	C365.906525,140.460434 375.606506,133.292252 385.085052,136.708481 
	C392.421600,139.352707 399.434418,142.917480 406.525604,146.213974 
	C414.082184,149.726791 421.489288,153.572266 429.128845,156.887192 
	C430.904785,157.657791 433.544617,157.375412 435.453125,156.671875 
	C438.005188,155.731125 440.231659,153.907135 442.501343,152.521439 
	C444.967712,137.767639 447.373962,122.941650 449.964569,108.147949 
	C450.711823,103.880852 451.145630,99.230576 453.199982,95.589134 
	C457.453186,88.050049 466.881439,86.375984 473.968658,91.493919 
	C486.812378,100.768776 499.468781,110.302910 512.207397,119.723335 
	C515.722839,122.323059 525.385132,119.435562 526.908447,115.210213 
	C531.651001,102.054619 536.169739,88.816826 541.043762,75.710762 
	C543.046692,70.324883 544.071167,64.217255 550.217102,61.277111 
	C557.146851,57.961998 564.447754,59.859264 569.476868,65.833565 
	C575.640930,73.156128 582.258301,80.097618 588.694641,87.190224 
	C592.248291,91.106148 595.743591,95.080688 599.424988,98.873741 
	C604.417236,104.017471 612.707092,103.165802 616.415649,97.008392 
	C624.239746,84.017899 632.252075,71.118538 639.476807,57.796547 
	C645.034058,47.549282 660.602417,47.674770 665.542480,56.739979 
	C673.026001,70.472740 681.557007,83.632195 689.535767,97.098778 
	C692.784119,102.581322 701.656616,104.214798 705.888855,99.541809 
	C715.954407,88.428009 725.897705,77.196632 735.625977,65.787277 
	C740.292297,60.314480 746.198181,58.957226 752.594604,60.175041 
	C757.853149,61.176212 761.158752,65.220093 762.972351,70.269531 
	C768.304077,85.114098 773.612244,99.967140 778.931274,114.816269 
	C780.646057,119.603203 790.057739,122.517448 793.997253,119.533371 
	C806.246643,110.254768 818.393005,100.832993 830.824585,91.804504 
	C839.622803,85.414757 852.816895,88.936661 854.980896,101.599945 
	C857.729065,117.681961 860.319641,133.790848 862.994324,149.885468 
	C863.748169,154.422256 872.418579,159.029160 876.640869,157.051514 
	C890.394165,150.609787 904.189880,144.251205 917.822388,137.561447 
	C927.446289,132.838806 940.155334,138.659958 939.971375,151.192932 
	C939.761902,165.461639 939.332947,179.727127 938.998474,193.993988 
	C938.982849,194.660187 939.048218,195.343552 938.923828,195.989685 
	C937.094177,205.496811 943.965637,212.234177 953.277161,210.036346 
	C967.531250,206.671967 981.791565,203.333420 996.034912,199.923965 
	C1005.015198,197.774323 1014.462341,204.673615 1013.822571,213.902298 
	C1013.273499,221.823227 1011.389160,229.680145 1009.732788,237.488480 
	C1007.708801,247.029984 1005.128296,256.455688 1003.218994,266.017426 
	C1002.841125,267.909607 1003.937805,270.546326 1005.185730,272.219757 
	C1007.818176,275.749847 1009.842346,279.017944 1016.147339,278.354614 
	C1030.127808,276.883881 1044.353027,277.894714 1058.397705,276.829132 
	C1070.467651,275.913361 1078.779175,287.531158 1073.580933,299.812164 
	C1067.611450,313.915100 1061.258911,327.856567 1055.019165,341.844238 
	C1052.667236,347.116760 1057.167603,356.844208 1062.819336,357.838654 
	C1077.125488,360.355927 1091.411865,363.167389 1105.824463,364.844208 
	C1119.686768,366.456970 1123.626099,380.538513 1117.598755,389.793579 
	C1109.144531,402.774719 1100.102905,415.372711 1091.338379,428.152344 
	C1088.040771,432.960510 1089.250000,438.513885 1094.009033,442.020905 
	C1115.186157,457.626160 1136.316040,473.295746 1157.456909,488.950256 
	C1164.023926,493.813019 1170.558472,498.719666 1177.132324,503.573181 
	C1185.190674,509.522797 1187.079346,515.697449 1184.196777,525.428406 
	C1180.319946,538.515991 1172.429443,549.393494 1164.959229,560.442200 
	C1148.422363,584.901001 1131.737671,609.264099 1114.791626,633.440918 
	C1100.358276,654.033142 1085.274780,674.170532 1070.883057,694.791321 
	C1064.550171,703.865295 1059.324341,713.705505 1053.381958,723.062012 
	C1051.072510,726.698364 1048.173096,729.960205 1045.542480,733.392639 
	C1044.831421,733.141052 1044.120239,732.889465 1043.409180,732.637878 
	C1044.399048,725.497620 1044.947388,718.262268 1046.460449,711.234680 
	C1051.185791,689.288696 1059.877197,668.817810 1069.599121,648.636353 
	C1085.094971,616.468994 1097.913330,583.230042 1106.720703,548.546143 
	C1107.281860,546.336426 1107.623291,544.066345 1107.984131,541.811157 
	C1109.077881,534.977051 1107.303467,529.461975 1100.162109,525.864014 
	C1097.599243,524.394043 1095.589355,523.230408 1093.517334,522.190063 
	C1079.106934,514.954407 1063.780884,512.264526 1047.767456,513.085571 
	C1039.648071,513.501892 1032.207764,514.924988 1030.990845,525.050171 
	C1030.971802,525.208008 1030.868774,525.357361 1030.797485,525.507141 
	C1026.894409,533.708618 1022.990356,541.909607 1019.086487,550.110718 
	C1011.022827,560.610474 1003.242981,571.343933 994.832825,581.558411 
	C980.071716,599.486328 961.533447,613.160400 942.405579,625.926575 
	C926.406189,636.604919 909.477112,645.678833 891.771912,653.403503 
	C887.005066,655.483337 883.672058,660.882812 879.726135,664.803955 
	C871.880005,672.600708 864.531738,680.980286 856.116455,688.101135 
	C846.160828,696.525513 835.619324,704.362427 824.750977,711.579407 
	C807.064880,723.323608 787.726685,731.766357 766.636169,734.825928 
	C735.710754,739.312256 707.453857,732.118896 682.508545,712.973572 
	C678.345215,709.778259 674.406738,706.288208 670.401123,702.890991 
	C669.814331,702.393372 669.433472,701.652893 668.292786,700.148071 
	C724.471191,699.554565 769.619812,677.772461 804.785522,633.417175 
	C795.333862,631.183960 786.656616,628.783752 777.840271,627.121277 
	C757.632507,623.310852 737.340637,620.522156 716.638123,620.861572 
	C700.786926,621.121460 685.337891,622.635010 669.767395,628.225830 
	C673.032166,623.784302 676.034424,619.117615 679.613159,614.945374 
	C688.667236,604.389771 697.603760,593.690430 707.285156,583.726685 
	C719.305664,571.355530 733.060791,561.064819 749.037903,554.216919 
	C781.369324,540.359375 810.471619,547.090637 837.060120,568.605835 
	C850.800842,579.724731 861.774109,593.255554 870.780823,607.843872 
	C890.619202,606.804443 906.641541,598.002930 920.279053,584.359131 
	C920.032288,584.015564 919.994934,584.078918 920.282715,584.346863 
	C921.364014,584.078674 922.157532,583.542480 923.274048,582.887024 
	C937.743042,572.680298 950.210693,560.807373 961.552063,547.618103 
	C960.398315,547.250732 959.633972,547.395081 958.898438,547.629761 
	C940.575012,553.474487 922.358887,559.685791 903.901794,565.071655 
	C888.332764,569.614685 872.484741,573.201721 856.760254,577.211914 
M535.169373,417.008881 
	C535.169373,417.008881 535.318848,417.064209 534.597839,417.198608 
	C531.512878,425.946960 527.488770,434.490387 525.526367,443.483704 
	C520.496460,466.534729 525.505493,487.014771 544.727295,502.094940 
	C556.843872,511.600800 570.057678,519.529175 586.511230,517.949585 
	C613.313843,515.376587 631.774536,499.563019 637.666504,474.196381 
	C640.685974,461.196747 640.748352,448.014343 637.846619,435.065521 
	C627.596313,389.324097 590.924561,380.496796 557.145691,391.332947 
	C553.450073,392.990387 549.324158,392.875549 546.043213,396.480042 
	C541.067017,401.946808 538.002991,408.076904 535.377808,415.292480 
	C535.277222,415.907715 535.176697,416.522949 535.169373,417.008881 
M737.187134,401.016876 
	C736.498047,401.452576 735.733398,401.803101 735.131226,402.336914 
	C726.819031,409.704742 723.092529,419.782013 719.643494,429.800140 
	C709.625977,458.897705 716.007324,484.157837 738.456238,505.222687 
	C745.257080,511.604248 753.477844,514.824890 762.856750,515.176514 
	C779.036743,515.783203 792.960510,509.512390 806.417969,501.431122 
	C818.969543,493.893860 825.254272,482.600098 827.062500,468.461609 
	C829.328064,450.747528 824.368896,434.290161 818.636108,417.829315 
	C814.462830,405.846680 806.293823,397.852295 795.596741,392.161316 
	C781.686035,384.760712 767.406799,384.096771 752.624329,391.648804 
	C746.341064,392.577515 742.087769,396.729980 737.187134,401.016876 
z"/>
<path fill="#A52B00" opacity="1.000000" stroke="none" 
	d="
M226.014221,523.421021 
	C231.360703,519.523071 236.650253,515.859070 242.172256,512.587463 
	C243.281265,511.930450 245.395096,512.432983 246.841232,512.960876 
	C274.633392,523.105591 302.137909,534.114746 330.222473,543.364380 
	C373.608978,557.653687 417.904968,568.743347 462.862610,576.955444 
	C484.698730,580.944031 506.602234,584.660217 528.582336,587.733337 
	C545.644836,590.118958 562.847656,591.659546 580.035095,592.949585 
	C598.905334,594.365906 617.823547,595.196045 636.731995,596.029785 
	C649.192322,596.579224 661.672302,596.683838 674.617126,597.031860 
	C674.929932,597.364502 674.766052,597.651428 674.608582,597.941833 
	C668.891357,608.482239 660.606079,612.545166 648.228638,611.294556 
	C635.199890,609.978210 621.928345,611.261597 608.775024,610.928772 
	C594.549744,610.568909 580.328308,609.815674 566.124023,608.931641 
	C553.946899,608.173706 541.764099,607.278381 529.641663,605.925415 
	C511.347931,603.883728 493.058441,601.702576 474.852112,599.006775 
	C454.560608,596.002136 434.244232,592.944031 414.154083,588.851868 
	C382.764740,582.458252 351.584167,574.998352 322.132690,561.954102 
	C309.337219,556.286926 296.903259,549.803528 284.304443,543.692200 
	C283.140228,543.127441 281.971405,542.572144 279.597015,541.433167 
	C281.914215,546.726074 283.513184,551.103210 285.669617,555.185852 
	C299.226471,580.852417 313.268555,606.270691 326.365570,632.167969 
	C331.446869,642.215332 334.523468,653.282043 338.407288,663.923096 
	C338.928711,665.351624 338.826172,667.007935 339.012543,668.558838 
	C338.594818,668.791016 338.177124,669.023132 337.759399,669.255310 
	C335.585236,666.746155 333.308594,664.317871 331.253143,661.714966 
	C315.239227,641.436157 299.322754,621.080322 283.268005,600.834045 
	C267.410339,580.836365 251.252426,561.073792 235.618607,540.903870 
	C231.658539,535.794739 229.191971,529.528015 226.014221,523.421021 
z"/>
<path fill="#A52B00" opacity="1.000000" stroke="none" 
	d="
M1019.440308,550.050537 
	C1022.990356,541.909607 1026.894409,533.708618 1030.797485,525.507141 
	C1030.868774,525.357361 1030.971802,525.208008 1030.990845,525.050171 
	C1032.207764,514.924988 1039.648071,513.501892 1047.767456,513.085571 
	C1063.780884,512.264526 1079.106934,514.954407 1093.517334,522.190063 
	C1095.589355,523.230408 1097.599243,524.394043 1099.828857,525.790894 
	C1093.999634,536.235474 1088.442383,546.700806 1081.870117,556.484253 
	C1064.088379,582.954468 1045.814331,609.093323 1027.864380,635.451477 
	C1021.109619,645.370483 1014.739746,655.551025 1008.118835,665.562378 
	C1007.011902,667.236084 1005.517334,668.653442 1004.201843,670.189209 
	C1003.714294,669.950500 1003.226746,669.711731 1002.739197,669.472961 
	C1004.057495,664.196594 1005.203003,658.869751 1006.725830,653.653076 
	C1011.776245,636.351990 1019.405823,620.138733 1027.386719,604.023926 
	C1039.367310,579.833496 1050.152344,555.107361 1058.319336,529.319092 
	C1058.599121,528.435608 1058.749390,527.511169 1058.940918,526.687866 
	C1045.785278,534.518921 1032.789795,542.254578 1019.440308,550.050537 
z"/>
<path fill="#A62B00" opacity="1.000000" stroke="none" 
	d="
M856.866028,577.530884 
	C872.484741,573.201721 888.332764,569.614685 903.901794,565.071655 
	C922.358887,559.685791 940.575012,553.474487 958.898438,547.629761 
	C959.633972,547.395081 960.398315,547.250732 961.552063,547.618103 
	C950.210693,560.807373 937.743042,572.680298 922.926270,582.885620 
	C921.502014,583.362061 920.748474,583.720520 919.994934,584.078918 
	C919.994934,584.078918 920.032288,584.015564 920.064209,584.033813 
	C911.142761,585.830200 902.196655,587.646118 893.233643,589.374146 
	C886.505432,590.671326 879.771118,591.957581 873.000916,592.997314 
	C871.769775,593.186340 869.941040,592.545654 869.090515,591.633240 
	C864.920654,587.160217 860.988159,582.465881 856.866028,577.530884 
z"/>
<path fill="#010100" opacity="1.000000" stroke="none" 
	d="
M557.811096,390.981232 
	C590.924561,380.496796 627.596313,389.324097 637.846619,435.065521 
	C640.748352,448.014343 640.685974,461.196747 637.666504,474.196381 
	C631.774536,499.563019 613.313843,515.376587 586.511230,517.949585 
	C570.057678,519.529175 556.843872,511.600800 544.727295,502.094940 
	C525.505493,487.014771 520.496460,466.534729 525.526367,443.483704 
	C527.488770,434.490387 531.512878,425.946960 535.119568,417.575195 
	C534.195007,428.544830 535.831665,438.544861 542.042664,447.393372 
	C551.246155,460.505096 566.694397,460.469849 576.109680,447.498077 
	C585.625549,434.387756 585.396606,412.944580 575.410278,400.276642 
	C571.502136,395.319092 566.778503,391.494904 559.837036,391.935791 
	C559.184509,391.977234 558.487488,391.316132 557.811096,390.981232 
z"/>
<path fill="#010100" opacity="1.000000" stroke="none" 
	d="
M753.089783,391.320343 
	C767.406799,384.096771 781.686035,384.760712 795.596741,392.161316 
	C806.293823,397.852295 814.462830,405.846680 818.636108,417.829315 
	C824.368896,434.290161 829.328064,450.747528 827.062500,468.461609 
	C825.254272,482.600098 818.969543,493.893860 806.417969,501.431122 
	C792.960510,509.512390 779.036743,515.783203 762.856750,515.176514 
	C753.477844,514.824890 745.257080,511.604248 738.456238,505.222687 
	C716.007324,484.157837 709.625977,458.897705 719.643494,429.800140 
	C723.092529,419.782013 726.819031,409.704742 735.131226,402.336914 
	C735.733398,401.803101 736.498047,401.452576 737.570557,401.343689 
	C737.376648,402.852783 736.747070,404.012665 736.229980,405.220703 
	C730.122070,419.489868 730.295105,433.451324 739.563538,446.273346 
	C748.301270,458.361145 763.003479,457.965485 771.778870,445.930695 
	C780.824036,433.525879 781.022034,413.398621 772.108521,400.961182 
	C767.474243,394.494659 761.382996,390.678772 753.089783,391.320343 
z"/>
<path fill="#FDFDFC" opacity="1.000000" stroke="none" 
	d="
M557.478394,391.157104 
	C558.487488,391.316132 559.184509,391.977234 559.837036,391.935791 
	C566.778503,391.494904 571.502136,395.319092 575.410278,400.276642 
	C585.396606,412.944580 585.625549,434.387756 576.109680,447.498077 
	C566.694397,460.469849 551.246155,460.505096 542.042664,447.393372 
	C535.831665,438.544861 534.195007,428.544830 535.480103,417.507996 
	C535.318848,417.064209 535.169373,417.008881 535.476929,417.033264 
	C535.824768,416.348114 535.865051,415.638550 535.905334,414.929016 
	C538.002991,408.076904 541.067017,401.946808 546.043213,396.480042 
	C549.324158,392.875549 553.450073,392.990387 557.478394,391.157104 
z"/>
<path fill="#FCFCFC" opacity="1.000000" stroke="none" 
	d="
M752.857056,391.484558 
	C761.382996,390.678772 767.474243,394.494659 772.108521,400.961182 
	C781.022034,413.398621 780.824036,433.525879 771.778870,445.930695 
	C763.003479,457.965485 748.301270,458.361145 739.563538,446.273346 
	C730.295105,433.451324 730.122070,419.489868 736.229980,405.220703 
	C736.747070,404.012665 737.376648,402.852783 737.912170,401.304993 
	C742.087769,396.729980 746.341064,392.577515 752.857056,391.484558 
z"/>
<path fill="#000000" opacity="1.000000" stroke="none" 
	d="
M920.282715,584.346863 
	C920.748474,583.720520 921.502014,583.362061 922.603333,583.005005 
	C922.157532,583.542480 921.364014,584.078674 920.282715,584.346863 
z"/>
<path fill="#010100" opacity="1.000000" stroke="none" 
	d="
M535.641602,415.110748 
	C535.865051,415.638550 535.824768,416.348114 535.430298,417.097900 
	C535.176697,416.522949 535.277222,415.907715 535.641602,415.110748 
z"/>
</svg>